<svg width="65" height="64" viewBox="0 0 65 64" fill="none" xmlns="http://www.w3.org/2000/svg">
<path d="M41.5652 37.6965C43.9174 37.6965 46.2431 38.2849 48.2912 39.3979C48.6631 39.5984 49.0044 39.8372 49.3529 40.0672C52.7142 33.4873 54.488 26.5283 54.488 19.7393C54.488 19.3578 54.488 18.9639 54.4758 18.5701C54.4512 18.0163 54.0573 17.5362 53.5034 17.4132C46.0696 15.7886 39.3373 11.7639 34.045 5.78242L33.2573 4.8839C33.0234 4.61317 32.6912 4.46548 32.3342 4.46548C31.9527 4.41628 31.6573 4.60085 31.4234 4.85934L30.2173 6.18859C25.1958 11.7147 18.8696 15.5301 11.9281 17.2286L11.1281 17.4254C10.5865 17.5486 10.205 18.0286 10.1927 18.5824C9.74962 35.887 19.965 48.3301 24.3712 52.8839C25.5641 54.1087 26.8941 55.3261 28.1588 56.3324C27.6844 54.9016 27.4113 53.3961 27.4113 51.8504C27.4113 44.0457 33.7605 37.6965 41.5652 37.6965Z" fill="url(#paint0_linear_1_842)"/>
<path d="M47.1156 41.5609C45.4172 40.6379 43.4972 40.1578 41.5649 40.1578C35.1156 40.1578 29.8726 45.4009 29.8726 51.8501C29.8726 54.0286 30.4634 56.1578 31.5957 57.9794C33.7495 61.4625 37.4665 63.5425 41.5649 63.5425C48.0018 63.5425 53.2572 58.2994 53.2572 51.8501C53.2572 47.5425 50.9064 43.604 47.1156 41.5609ZM47.5531 50.2934L38.4082 57.4099L35.2862 52.5265C34.9197 51.9538 35.0873 51.193 35.66 50.827C36.2334 50.4604 36.9948 50.6293 37.3596 51.2008L39.0272 53.809L46.0411 48.351C46.5765 47.9334 47.3505 48.0289 47.7682 48.5662C48.1859 49.1028 48.0891 49.8763 47.5531 50.2934Z" fill="url(#paint1_linear_1_842)"/>
<defs>
<linearGradient id="paint0_linear_1_842" x1="32.3334" y1="4.45752" x2="32.3334" y2="56.3324" gradientUnits="userSpaceOnUse">
<stop stop-color="#EF8080"/>
<stop offset="1" stop-color="#F0145A"/>
</linearGradient>
<linearGradient id="paint1_linear_1_842" x1="41.5649" y1="40.1578" x2="41.5649" y2="63.5425" gradientUnits="userSpaceOnUse">
<stop stop-color="#EF8080"/>
<stop offset="1" stop-color="#F0145A"/>
</linearGradient>
</defs>
</svg>
