<svg width="65" height="64" viewBox="0 0 65 64" fill="none" xmlns="http://www.w3.org/2000/svg">
<path fill-rule="evenodd" clip-rule="evenodd" d="M53.7847 35.0764V52.3716C53.7847 55.4649 51.3604 58 48.3966 58H16.3036C13.3398 58 10.9155 55.4649 10.9155 52.3716V35.0764H27.5816V42.5872L32.3501 45.7207L37.1186 42.5872V35.0764H53.7847Z" fill="url(#paint0_linear_1_823)"/>
<path fill-rule="evenodd" clip-rule="evenodd" d="M29.252 35.0764V41.6849L32.35 43.7205L35.4481 41.6849V35.0764H29.252Z" fill="url(#paint1_linear_1_823)"/>
<path fill-rule="evenodd" clip-rule="evenodd" d="M12.4069 15.1426H52.2934C54.1758 15.1426 55.7143 16.8507 55.7143 18.938V29.1912C55.7143 31.2786 54.1758 32.9867 52.2934 32.9867H36.6475H28.0529H12.4069C10.5245 32.9867 8.98608 31.2786 8.98608 29.1912V18.938C8.98608 16.8507 10.5245 15.1426 12.4069 15.1426Z" fill="url(#paint2_linear_1_823)"/>
<path fill-rule="evenodd" clip-rule="evenodd" d="M24.0455 5.95435H40.655C42.1982 5.95435 43.461 7.21714 43.461 8.7603V13.1377H39.9035V10.5508C39.9035 9.85347 39.3333 9.28097 38.6359 9.28097H26.0645C25.3672 9.28097 24.797 9.85347 24.797 10.5508V13.1377H21.2395V8.7603C21.2395 7.21714 22.5023 5.95435 24.0455 5.95435Z" fill="url(#paint3_linear_1_823)"/>
<defs>
<linearGradient id="paint0_linear_1_823" x1="32.3501" y1="35.0764" x2="32.3501" y2="58" gradientUnits="userSpaceOnUse">
<stop stop-color="#EF8080"/>
<stop offset="1" stop-color="#F0145A"/>
</linearGradient>
<linearGradient id="paint1_linear_1_823" x1="32.35" y1="35.0764" x2="32.35" y2="43.7205" gradientUnits="userSpaceOnUse">
<stop stop-color="#EF8080"/>
<stop offset="1" stop-color="#F0145A"/>
</linearGradient>
<linearGradient id="paint2_linear_1_823" x1="32.3502" y1="15.1426" x2="32.3502" y2="32.9867" gradientUnits="userSpaceOnUse">
<stop stop-color="#EF8080"/>
<stop offset="1" stop-color="#F0145A"/>
</linearGradient>
<linearGradient id="paint3_linear_1_823" x1="32.3502" y1="5.95435" x2="32.3502" y2="13.1377" gradientUnits="userSpaceOnUse">
<stop stop-color="#EF8080"/>
<stop offset="1" stop-color="#F0145A"/>
</linearGradient>
</defs>
</svg>
