<svg width="65" height="64" viewBox="0 0 65 64" fill="none" xmlns="http://www.w3.org/2000/svg">
<path d="M41.0187 20.3897C41.7507 21.1217 42.9367 21.1237 43.6687 20.3897L46.2767 17.7817C47.0077 17.0497 47.0057 15.8637 46.2767 15.1307L39.6937 8.54973C38.9637 7.81773 37.7777 7.81773 37.0457 8.54973L34.4367 11.1577C33.7067 11.8897 33.7067 13.0757 34.4367 13.8057L41.0187 20.3897Z" fill="url(#paint0_linear_1_848)"/>
<path d="M25.4328 36.2677C26.1638 36.9967 27.3498 36.9967 28.0808 36.2677L30.6898 33.6577C31.4218 32.9277 31.4218 31.7407 30.6898 31.0087L24.1068 24.4257C23.3758 23.6957 22.1898 23.6937 21.4578 24.4257L18.8498 27.0337C18.1178 27.7657 18.1198 28.9517 18.8498 29.6837L25.4328 36.2677Z" fill="url(#paint1_linear_1_848)"/>
<path d="M55.3149 36.8937L52.6679 34.2437C51.9339 33.5137 50.7509 33.5137 50.0199 34.2437L48.8589 35.4037L37.6539 24.1967L40.0809 21.7687L33.3479 15.0377L30.9199 17.4657L27.8279 20.5557L25.4539 22.9297L32.1859 29.6627L34.5629 27.2897L45.7659 38.4947L44.7179 39.5437C43.9859 40.2727 43.9839 41.4597 44.7179 42.1917L47.3649 44.8397C48.0989 45.5737 49.2839 45.5737 50.0149 44.8397L55.3139 39.5427C56.0469 38.8097 56.0469 37.6257 55.3149 36.8937Z" fill="url(#paint2_linear_1_848)"/>
<path d="M35.7437 44.9428C35.7437 43.7438 34.7717 42.7698 33.5707 42.7698H16.6027C15.4027 42.7698 14.4297 43.7438 14.4297 44.9428V48.4698H9.66675V55.8588H40.2247V48.4698H35.7437V44.9428Z" fill="url(#paint3_linear_1_848)"/>
<defs>
<linearGradient id="paint0_linear_1_848" x1="40.3567" y1="8.00073" x2="40.3567" y2="20.9395" gradientUnits="userSpaceOnUse">
<stop stop-color="#EF8080"/>
<stop offset="1" stop-color="#F0145A"/>
</linearGradient>
<linearGradient id="paint1_linear_1_848" x1="24.7701" y1="23.8774" x2="24.7701" y2="36.8144" gradientUnits="userSpaceOnUse">
<stop stop-color="#EF8080"/>
<stop offset="1" stop-color="#F0145A"/>
</linearGradient>
<linearGradient id="paint2_linear_1_848" x1="40.6588" y1="15.0377" x2="40.6588" y2="45.3902" gradientUnits="userSpaceOnUse">
<stop stop-color="#EF8080"/>
<stop offset="1" stop-color="#F0145A"/>
</linearGradient>
<linearGradient id="paint3_linear_1_848" x1="24.9457" y1="42.7698" x2="24.9457" y2="55.8588" gradientUnits="userSpaceOnUse">
<stop stop-color="#EF8080"/>
<stop offset="1" stop-color="#F0145A"/>
</linearGradient>
</defs>
</svg>
